<svg xmlns="http://www.w3.org/2000/svg" baseProfile="full" version="1.1" style="fill: none;" width="240px" height="315px"><path style="stroke-width: 6px; stroke-linecap: round; stroke-linejoin: round; stroke: rgb(255, 255, 255); fill: rgb(255, 255, 255);" d="M30,30 L30,30 L30,285 L210,285 L210,30 L30,30 "/><path style="stroke-width: 7px; stroke-linecap: round; stroke-linejoin: round; stroke: rgb(0, 0, 0); fill: none;" d="M45,75 L45,75 L45,180 L195,180 L195,75 L45,75 M165,270 L165,270 L195,270 L195,255 L165,255 L165,270 M45,195 L45,195 L195,195 L195,195 M45,210 L45,210 L150,210 M45,225 L45,225 L195,225 M45,240 L45,240 L60,240 M195,60 L195,60 L45,60 L45,45 L195,45 L195,60 "/><path style="stroke-width: 13px; stroke-linecap: round; stroke-linejoin: round; stroke: rgb(10, 10, 10); fill: none;" d="M30,30 L30,30 L30,285 L210,285 L210,30 L30,30 L30,30 "/></svg>